<svg xmlns="http://www.w3.org/2000/svg" width="168.22" height="26.364">
  <path d="M25.714.858L21.32 19.24h-5.512L12.87 6.94l-2.964 12.3H4.394L0 .858h4.836L7.202 14.17 10.426.858h4.862l3.224 13.312L20.904.858zm16.12 10.738a6.133 6.133 0 01-.13 1.2H31.642a3.363 3.363 0 00.832 2.353 2.683 2.683 0 001.92.711 2.63 2.63 0 001.638-.494 2.307 2.307 0 00.862-1.274H41.6a6.149 6.149 0 01-1.248 2.748 6.652 6.652 0 01-2.444 1.9 7.738 7.738 0 01-3.3.689 7.8 7.8 0 01-3.783-.9 6.409 6.409 0 01-2.589-2.589 8.027 8.027 0 01-.936-3.952 8.1 8.1 0 01.923-3.965 6.326 6.326 0 012.587-2.574 7.873 7.873 0 013.8-.9 7.87 7.87 0 013.8.884 6.245 6.245 0 012.535 2.483 7.391 7.391 0 01.889 3.68zm-4.5-.676a2.673 2.673 0 00-.767-2.145 2.823 2.823 0 00-1.963-.715 2.912 2.912 0 00-2.028.728 3.048 3.048 0 00-.91 2.132zm15.86-6.37a5.876 5.876 0 013.211.9 6.152 6.152 0 012.236 2.574 8.945 8.945 0 01.819 3.965 8.966 8.966 0 01-.817 3.951 6.137 6.137 0 01-2.236 2.585 5.876 5.876 0 01-3.213.897 5.252 5.252 0 01-2.86-.754 4.378 4.378 0 01-1.74-2.054v2.626h-4.446V0h4.446v7.358a4.378 4.378 0 011.742-2.054 5.252 5.252 0 012.858-.754zm-1.43 3.9a3.026 3.026 0 00-2.3.949 3.613 3.613 0 00-.9 2.587 3.623 3.623 0 00.9 2.574 3.006 3.006 0 002.3.962 3 3 0 002.3-.936 3.669 3.669 0 00.871-2.6 3.669 3.669 0 00-.871-2.6 3 3 0 00-2.298-.936zm26.6 7.436h-6.89L70.33 19.24h-4.68L72.384.988h5.122L84.24 19.24h-4.732zm-1.144-3.38l-2.288-6.76-2.314 6.76zM91.468 4.55a5.252 5.252 0 012.86.754 4.533 4.533 0 011.766 2.054V4.732h4.42v14.43a8.335 8.335 0 01-.78 3.653 5.982 5.982 0 01-2.39 2.587 7.7 7.7 0 01-4 .962 8.23 8.23 0 01-5.239-1.547 6.294 6.294 0 01-2.353-4.2h4.394a2.2 2.2 0 00.948 1.379 3.433 3.433 0 001.937.494 3.117 3.117 0 002.223-.793 3.336 3.336 0 00.84-2.535v-2.548a4.533 4.533 0 01-1.766 2.054 5.252 5.252 0 01-2.86.754 5.876 5.876 0 01-3.211-.9 6.137 6.137 0 01-2.236-2.582 8.966 8.966 0 01-.819-3.952 8.945 8.945 0 01.819-3.965 6.152 6.152 0 012.236-2.574 5.876 5.876 0 013.211-.899zm1.43 3.9a3 3 0 00-2.3.936 3.67 3.67 0 00-.871 2.6 3.67 3.67 0 00.871 2.6 3 3 0 002.3.936 3.006 3.006 0 002.296-.962 3.623 3.623 0 00.9-2.574 3.613 3.613 0 00-.9-2.587 3.026 3.026 0 00-2.3-.949zm24.466 3.146a6.133 6.133 0 01-.13 1.2h-10.062a3.363 3.363 0 00.832 2.353 2.683 2.683 0 001.924.715 2.63 2.63 0 001.638-.494 2.307 2.307 0 00.858-1.274h4.706a6.149 6.149 0 01-1.248 2.744 6.652 6.652 0 01-2.444 1.9 7.738 7.738 0 01-3.3.689 7.8 7.8 0 01-3.783-.9 6.409 6.409 0 01-2.589-2.589 8.027 8.027 0 01-.936-3.952 8.1 8.1 0 01.923-3.965 6.325 6.325 0 012.587-2.574 7.873 7.873 0 013.8-.9 7.87 7.87 0 013.8.884 6.245 6.245 0 012.535 2.483 7.391 7.391 0 01.889 3.68zm-4.5-.676a2.673 2.673 0 00-.767-2.145 2.823 2.823 0 00-1.963-.715 2.912 2.912 0 00-2.028.728 3.048 3.048 0 00-.912 2.132zm16.016-6.344a5.022 5.022 0 013.967 1.664 6.674 6.674 0 011.469 4.576v8.424h-4.446v-7.9a3.2 3.2 0 00-.767-2.275 2.664 2.664 0 00-2.041-.825 2.778 2.778 0 00-2.145.858 3.47 3.47 0 00-.793 2.442v7.7h-4.446V4.732h4.446v2.652a4.786 4.786 0 011.859-2.054 5.453 5.453 0 012.899-.754zm14.924-.026a7.206 7.206 0 014.706 1.547 6.86 6.86 0 012.392 4.251h-4.708a2.483 2.483 0 00-.858-1.456 2.539 2.539 0 00-1.638-.52 2.376 2.376 0 00-1.924.923 4.166 4.166 0 00-.754 2.691 4.166 4.166 0 00.754 2.691 2.376 2.376 0 001.924.923 2.539 2.539 0 001.638-.52 2.483 2.483 0 00.858-1.456h4.706a6.86 6.86 0 01-2.392 4.251 7.206 7.206 0 01-4.702 1.547 7.8 7.8 0 01-3.783-.9 6.409 6.409 0 01-2.587-2.582 8.027 8.027 0 01-.936-3.952 8.1 8.1 0 01.923-3.965 6.326 6.326 0 012.587-2.574 7.873 7.873 0 013.796-.899zm12.766.182l3.484 8.892 3.25-8.892h4.914l-9.046 21.424h-4.888l3.41-7.462-6.084-13.962z"/>
</svg>
