<svg xmlns="http://www.w3.org/2000/svg" width="500" height="500" style="width:100%;height:100%"><defs><clipPath id="a"><path d="M0 0h500v500H0z"/></clipPath></defs><g display="block" clip-path="url(#a)"><path stroke-linecap="round" stroke-linejoin="round" stroke="#FFF" stroke-width="12.04" d="M250 134.469V89.881m0 146.31v-32.326m-90.745 6.756c36.143 34.101 145.347 34.101 181.49 0m0 0l5.463 97.764c3.087 55.244-40.878 101.734-96.208 101.734 0 0 0 0 0 0-55.33 0-99.295-46.49-96.208-101.734l5.463-97.764m0 0l2.545-45.543c2.357-42.189 37.256-75.193 79.511-75.193l8.689.001m0 0h8.689c42.255 0 77.154 33.003 79.511 75.192l2.545 45.543" fill="none"/><path stroke-linecap="round" stroke-linejoin="round" stroke="gold" stroke-width="12.04" d="M248.743 202.868h2.514c7.637 0 13.828-6.191 13.828-13.828v-39.748c0-7.637-6.191-13.828-13.828-13.828h-2.514c-7.637 0-13.828 6.191-13.828 13.828v39.748c0 7.637 6.191 13.828 13.828 13.828z" fill="none"/></g></svg>